<svg xmlns="http://www.w3.org/2000/svg" xmlns:xlink="http://www.w3.org/1999/xlink" width="500" zoomAndPan="magnify" viewBox="0 0 375 374.999991" height="500" preserveAspectRatio="xMidYMid meet" version="1.0"><defs><clipPath id="a511999fc5"><path d="M 36.476562 276 L 338.726562 276 L 338.726562 375 L 36.476562 375 Z M 36.476562 276 " clip-rule="nonzero"/></clipPath></defs><path fill="#bdc3c7" d="M 215.574219 284.234375 C 281.195312 288.003906 330.660156 304.859375 330.660156 325.074219 C 330.660156 348.050781 266.632812 366.695312 187.601562 366.695312 C 108.597656 366.695312 44.542969 348.050781 44.542969 325.074219 C 44.542969 305.09375 92.871094 288.417969 157.335938 284.363281 C 169.0625 303.019531 179.457031 319.644531 186.332031 332.035156 C 193.445312 319.210938 203.886719 302.628906 215.574219 284.234375 Z M 215.574219 284.234375 " fill-opacity="1" fill-rule="nonzero"/><path fill="#e74c3c" d="M 186.332031 8.222656 C 248.246094 8.222656 298.441406 58.382812 298.441406 120.269531 C 298.441406 155.195312 251.203125 228.152344 215.574219 284.234375 C 203.886719 302.628906 193.445312 319.210938 186.332031 332.035156 C 179.457031 319.644531 169.0625 303.019531 157.335938 284.363281 C 121.890625 228 74.210938 153.074219 74.210938 120.269531 C 74.210938 58.382812 124.40625 8.222656 186.332031 8.222656 Z M 236.421875 116.042969 C 236.421875 88.457031 213.925781 65.964844 186.332031 65.964844 C 158.726562 65.964844 136.226562 88.457031 136.226562 116.042969 C 136.226562 143.617188 158.726562 166.097656 186.332031 166.097656 C 213.925781 166.097656 236.421875 143.617188 236.421875 116.042969 Z M 236.421875 116.042969 " fill-opacity="1" fill-rule="nonzero"/><g clip-path="url(#a511999fc5)"><path fill="#000000" d="M 187.601562 374.773438 C 148.652344 374.773438 111.925781 370.328125 84.1875 362.253906 C 52.964844 353.167969 36.460938 340.3125 36.460938 325.074219 C 36.460938 294.660156 101.300781 279.792969 156.828125 276.300781 C 161.273438 276.015625 165.121094 279.402344 165.402344 283.855469 C 165.683594 288.308594 162.300781 292.144531 157.84375 292.421875 C 127.101562 294.355469 99.269531 299.304688 79.476562 306.351562 C 59.65625 313.414062 52.625 320.847656 52.625 325.074219 C 52.625 329.222656 60.222656 338.457031 88.707031 346.746094 C 115.015625 354.402344 150.140625 358.621094 187.601562 358.621094 C 225.074219 358.621094 260.199219 354.402344 286.507812 346.746094 C 314.984375 338.457031 322.582031 329.222656 322.582031 325.074219 C 322.582031 314.199219 284.308594 296.273438 215.109375 292.296875 C 210.652344 292.039062 207.246094 288.222656 207.503906 283.769531 C 207.761719 279.316406 211.570312 275.898438 216.039062 276.171875 C 272.644531 279.421875 338.746094 294.183594 338.746094 325.074219 C 338.746094 340.3125 322.246094 353.167969 291.027344 362.253906 C 263.292969 370.328125 226.5625 374.773438 187.601562 374.773438 Z M 187.601562 374.773438 " fill-opacity="1" fill-rule="nonzero"/></g><path fill="#000000" d="M 186.332031 340.109375 C 183.398438 340.109375 180.691406 338.519531 179.265625 335.953125 C 172.585938 323.921875 162.285156 307.414062 150.492188 288.65625 L 150.492188 288.660156 L 147.757812 284.3125 C 111.390625 226.503906 66.128906 154.5625 66.128906 120.269531 C 66.128906 54.03125 120.050781 0.148438 186.332031 0.148438 C 252.605469 0.148438 306.523438 54.03125 306.523438 120.269531 C 306.523438 156.273438 263.917969 223.265625 226.328125 282.375 L 222.394531 288.5625 C 210.699219 306.976562 200.441406 323.253906 193.402344 335.949219 C 191.976562 338.515625 189.273438 340.109375 186.335938 340.109375 C 186.335938 340.109375 186.335938 340.109375 186.332031 340.109375 Z M 186.332031 16.296875 C 128.964844 16.296875 82.292969 62.9375 82.292969 120.269531 C 82.292969 149.910156 128.039062 222.621094 161.441406 275.714844 L 164.179688 280.066406 C 172.796875 293.777344 180.265625 305.714844 186.335938 315.894531 C 192.675781 305.277344 200.347656 293.132812 208.75 279.90625 L 212.6875 273.710938 C 245.464844 222.167969 290.359375 151.574219 290.359375 120.269531 C 290.359375 62.9375 243.691406 16.296875 186.332031 16.296875 Z M 186.332031 16.296875 " fill-opacity="1" fill-rule="nonzero"/><path fill="#000000" d="M 186.332031 174.175781 C 154.25 174.175781 128.144531 148.097656 128.144531 116.042969 C 128.144531 83.976562 154.25 57.890625 186.332031 57.890625 C 218.410156 57.890625 244.503906 83.976562 244.503906 116.042969 C 244.503906 148.097656 218.410156 174.175781 186.332031 174.175781 Z M 186.332031 74.042969 C 163.160156 74.042969 144.308594 92.882812 144.308594 116.042969 C 144.308594 139.191406 163.160156 158.023438 186.332031 158.023438 C 209.496094 158.023438 228.339844 139.191406 228.339844 116.042969 C 228.339844 92.882812 209.496094 74.042969 186.332031 74.042969 Z M 186.332031 74.042969 " fill-opacity="1" fill-rule="nonzero"/></svg>
